<mxfile host="app.diagrams.net" modified="2023-12-21T08:38:01.725Z" agent="Mozilla/5.0 (Windows NT 10.0; Win64; x64) AppleWebKit/537.36 (KHTML, like Gecko) Chrome/114.0.0.0 Safari/537.36" version="21.8.2" etag="W7xboZBuuWnTeJkz5xN5" type="github">
  <diagram name="第 1 页" id="kFLmBOMzXL2V27UnApV2">
    <mxGraphModel>
      <root>
        <mxCell id="0" />
        <mxCell id="1" parent="0" />
      </root>
    </mxGraphModel>
  </diagram>
</mxfile>
